<?xml version="1.0" encoding="UTF-8" standalone="no"?>
<!-- Created with Inkscape (http://www.inkscape.org/) -->

<svg
   xmlns:dc="http://purl.org/dc/elements/1.1/"
   xmlns:cc="http://creativecommons.org/ns#"
   xmlns:rdf="http://www.w3.org/1999/02/22-rdf-syntax-ns#"
   xmlns:svg="http://www.w3.org/2000/svg"
   xmlns="http://www.w3.org/2000/svg"
   xmlns:sodipodi="http://sodipodi.sourceforge.net/DTD/sodipodi-0.dtd"
   xmlns:inkscape="http://www.inkscape.org/namespaces/inkscape"
   width="2301.8987"
   height="1435.9293"
   viewBox="0 0 649.64697 405.25117"
   version="1.1"
   id="svg8"
   inkscape:version="0.48.0 r9654"
   sodipodi:docname="High_resolution_picture.png">
  <defs
     id="defs2">
    <inkscape:path-effect
       effect="mirror_symmetry"
       start_point="-1077.7112,-61.245914"
       end_point="-1077.7112,246.35119"
       center_point="-1077.7112,92.552638"
       id="path-effect95"
       is_visible="true"
       mode="free"
       discard_orig_path="false"
       fuse_paths="false"
       oposite_fuse="false" />
  </defs>
  <sodipodi:namedview
     id="base"
     pagecolor="#ffffff"
     bordercolor="#666666"
     borderopacity="1.0"
     inkscape:pageopacity="0.0"
     inkscape:pageshadow="2"
     inkscape:zoom="0.35"
     inkscape:cx="-114.56423"
     inkscape:cy="697.13711"
     inkscape:document-units="mm"
     inkscape:current-layer="layer1"
     showgrid="false"
     inkscape:window-width="2560"
     inkscape:window-height="1377"
     inkscape:window-x="-8"
     inkscape:window-y="-8"
     inkscape:window-maximized="1"
     fit-margin-top="0"
     fit-margin-left="0"
     fit-margin-right="0"
     fit-margin-bottom="0" />
  <metadata
     id="metadata5">
    <rdf:RDF>
      <cc:Work
         rdf:about="">
        <dc:format>image/svg+xml</dc:format>
        <dc:type
           rdf:resource="http://purl.org/dc/dcmitype/StillImage" />
        <dc:title></dc:title>
      </cc:Work>
    </rdf:RDF>
  </metadata>
  <g
     inkscape:label="Layer 1"
     inkscape:groupmode="layer"
     id="layer1"
     transform="translate(1220.3911,61.34375)">
    <path
       style="fill:#e37222;fill-opacity:1;stroke:none"
       d="m -1096.1028,235.21066 c 2.3274,-5.79392 4.2317,-11.1943 4.2317,-12.00078 0,-0.8065 -3.0006,-22.00022 -6.6681,-47.09718 l -6.6682,-45.63083 1.6399,-20.81197 1.6398,-20.811976 -3.9161,-27.662396 c -2.1539,-15.214317 -4.06,-27.662396 -4.236,-27.662396 -0.1758,0 -4.0286,16.378833 -8.5617,36.397411 -4.533,20.018579 -8.3897,36.637607 -8.5704,36.931177 -0.4413,0.71714 -6.8878,-1.09837 -6.8878,-1.9398 0,-1.82448 14.0083,-94.690965 14.3254,-94.9691264 0.206,-0.1806046 8.1407,-4.0126682 17.6327,-8.5156939 l 17.2583,-8.1873221 -0.153,-4.5434356 -0.153,-4.543435 -3.8754,-2.348157 -3.8754,-2.348157 v -13.005155 -13.005155 l 7.5337,-7.024752 c 6.5661,-6.122432 7.6475,-6.936603 8.419,-6.338486 0.4869,0.377447 3.9521,3.547626 7.7006,7.044842 l 6.8154,6.358575 -0.01,12.08867 c 0,6.648769 -0.1395,12.580954 -0.3011,13.182635 -0.165,0.614139 -1.8616,2.034109 -3.8682,3.237413 l -3.5742,2.143447 -0.153,4.550577 -0.1531,4.5505736 17.2583,8.1873221 c 9.4921,4.5030257 17.424,8.3349755 17.6265,8.5154531 0.31,0.2763282 14.3359,93.2468072 14.3327,95.0047372 0,0.81776 -6.4592,2.60271 -6.8889,1.90411 -0.1806,-0.29374 -4.0428,-16.912771 -8.5826,-36.931172 -4.5397,-20.018401 -8.3925,-36.397096 -8.5617,-36.397096 -0.1692,0 -2.0681,12.448079 -4.2198,27.662396 l -3.9123,27.662396 1.6218,20.847026 1.6217,20.84702 -6.6839,45.70309 c -3.6762,25.1367 -6.6911,46.30445 -6.6998,47.03943 -0.01,0.73499 1.9091,6.08706 4.2618,11.8935 l 4.2776,10.55714 h -5.4415 -5.4416 l -4.8952,-8.41899 c -2.6924,-4.63045 -5.1962,-9.08672 -5.5641,-9.90282 -0.3678,-0.81609 -0.9,-1.40677 -1.1825,-1.3126 -0.2825,0.0942 -3.0646,4.55046 -6.1823,9.90282 l -5.6687,9.73159 h -5.4409 -5.4408 z"
       id="path101"
       inkscape:connector-curvature="0"
       inkscape:export-xdpi="96"
       inkscape:export-ydpi="96" />
    <path
       style="fill:#dad7cb;fill-opacity:1;stroke:none"
       d="m -876.52677,129.55655 29.10417,71.4375 240.77083,0.75595 35.90771,-70.68155 z"
       id="path117"
       inkscape:connector-curvature="0"
       inkscape:export-xdpi="96"
       inkscape:export-ydpi="96" />
    <text
       xml:space="preserve"
       style="font-size:11.28888893px;font-style:normal;font-weight:normal;text-align:center;line-height:125%;letter-spacing:0px;word-spacing:0px;text-anchor:middle;fill:#000000;fill-opacity:1;stroke:none;font-family:Sans"
       x="-1075.8351"
       y="268.1106"
       id="text2999"
       sodipodi:linespacing="125%"><tspan
         sodipodi:role="line"
         id="tspan3001"
         x="-1075.8351"
         y="268.1106"
         style="font-size:18.06222343px;font-style:normal;font-variant:normal;font-weight:normal;font-stretch:normal;text-align:center;line-height:125%;writing-mode:lr-tb;text-anchor:middle;font-family:Libre Franklin;-inkscape-font-specification:Libre Franklin"><tspan
           style="-inkscape-font-specification:'TUM Neue Helvetica 55 Regular,';font-family:TUM Neue Helvetica 55 Regular;font-weight:normal;font-style:normal;font-stretch:normal;font-variant:normal;font-size:18.06222249px;text-anchor:middle;text-align:center;writing-mode:lr;line-height:125%"
           id="tspan3021">Swimmer</tspan></tspan><tspan
         sodipodi:role="line"
         x="-1075.8351"
         y="290.68839"
         style="font-size:18.06222249px;font-style:normal;font-variant:normal;font-weight:normal;font-stretch:normal;text-align:center;line-height:125%;writing-mode:lr;text-anchor:middle;font-family:TUM Neue Helvetica 55 Regular;-inkscape-font-specification:'TUM Neue Helvetica 55 Regular,'"
         id="tspan3003" /><tspan
         sodipodi:role="line"
         x="-1075.8351"
         y="313.26614"
         style="font-size:18.06222249px;font-style:normal;font-variant:normal;font-weight:normal;font-stretch:normal;text-align:center;line-height:125%;writing-mode:lr;text-anchor:middle;font-family:TUM Neue Helvetica 55 Regular;-inkscape-font-specification:'TUM Neue Helvetica 55 Regular,'"
         id="tspan3005">mass = 75 kg</tspan><tspan
         sodipodi:role="line"
         x="-1075.8351"
         y="335.84393"
         style="font-size:18.06222249px;font-style:normal;font-variant:normal;font-weight:normal;font-stretch:normal;text-align:center;line-height:125%;writing-mode:lr;text-anchor:middle;font-family:TUM Neue Helvetica 55 Regular;-inkscape-font-specification:'TUM Neue Helvetica 55 Regular,'"
         id="tspan3007">relative jumping velocity = 3 m/s</tspan></text>
    <text
       xml:space="preserve"
       style="font-size:11.28888893px;font-style:normal;font-weight:normal;text-align:center;line-height:125%;letter-spacing:0px;word-spacing:0px;text-anchor:middle;fill:#000000;fill-opacity:1;stroke:none;font-family:Sans"
       x="-728.66846"
       y="268.1106"
       id="text3009"
       sodipodi:linespacing="125%"><tspan
         sodipodi:role="line"
         id="tspan3011"
         x="-728.66846"
         y="268.1106"
         style="font-size:18.06222249px;font-style:normal;font-variant:normal;font-weight:normal;font-stretch:normal;text-align:center;line-height:125%;writing-mode:lr;text-anchor:middle;font-family:TUM Neue Helvetica 55 Regular;-inkscape-font-specification:'TUM Neue Helvetica 55 Regular,'">Boat</tspan><tspan
         sodipodi:role="line"
         x="-728.66846"
         y="290.68839"
         id="tspan3013"
         style="font-size:18.06222249px;font-style:normal;font-variant:normal;font-weight:normal;font-stretch:normal;text-align:center;line-height:125%;writing-mode:lr;text-anchor:middle;font-family:TUM Neue Helvetica 55 Regular;-inkscape-font-specification:'TUM Neue Helvetica 55 Regular,'" /><tspan
         sodipodi:role="line"
         x="-728.66846"
         y="313.26614"
         id="tspan3015"
         style="font-size:18.06222249px;font-style:normal;font-variant:normal;font-weight:normal;font-stretch:normal;text-align:center;line-height:125%;writing-mode:lr;text-anchor:middle;font-family:TUM Neue Helvetica 55 Regular;-inkscape-font-specification:'TUM Neue Helvetica 55 Regular,'">mass = 300 kg</tspan><tspan
         sodipodi:role="line"
         x="-728.66846"
         y="335.84393"
         id="tspan3017"
         style="font-size:18.06222249px;font-style:normal;font-variant:normal;font-weight:normal;font-stretch:normal;text-align:center;line-height:125%;writing-mode:lr;text-anchor:middle;font-family:TUM Neue Helvetica 55 Regular;-inkscape-font-specification:'TUM Neue Helvetica 55 Regular,'">start velocity = 2 m/s</tspan></text>
  </g>
</svg>
