<svg height="512pt" viewBox="-22 0 512 512" width="512pt" xmlns="http://www.w3.org/2000/svg"><path d="m449.175781 310.304688-61.660156 16.523437-45.347656-26.179687v-89.296876l45.347656-26.179687 61.660156 16.523437c8.164063 2.195313 16.554688-2.652343 18.75-10.816406 2.183594-8.167968-2.664062-16.566406-10.828125-18.75l-32.089844-8.601562 25.3125-14.617188c7.316407-4.222656 9.828126-13.582031 5.601563-20.910156-4.222656-7.316406-13.59375-9.828125-20.910156-5.601562l-25.3125 14.613281 8.59375-32.085938c2.195312-8.164062-2.652344-16.566406-10.816407-18.75-8.175781-2.191406-16.5625 2.65625-18.75 10.820313l-16.519531 61.660156-45.34375 26.179688-77.332031-44.648438v-52.347656l45.140625-45.140625c5.980469-5.980469 5.980469-15.675781 0-21.65625-5.980469-5.96875-15.664063-5.96875-21.644531 0l-23.496094 23.496093v-29.230468c0-8.449219-6.855469-15.308594-15.308594-15.308594-8.449218 0-15.308594 6.859375-15.308594 15.308594v29.230468l-23.492187-23.496093c-5.980469-5.96875-15.664063-5.96875-21.644531 0-5.980469 5.980469-5.980469 15.675781 0 21.65625l45.136718 45.140625v52.347656l-77.328124 44.648438-45.34375-26.179688-16.523438-61.660156c-2.183594-8.164063-10.570312-13.011719-18.746094-10.820313-8.164062 2.183594-13.011718 10.585938-10.820312 18.75l8.59375 32.085938-25.308594-14.613281c-7.316406-4.226563-16.6875-1.714844-20.910156 5.601562-4.226563 7.328125-1.714844 16.6875 5.601562 20.910156l25.308594 14.617188-32.085938 8.601562c-8.164062 2.183594-13.011718 10.582032-10.828124 18.75 2.195312 8.164063 10.582031 13.011719 18.75 10.816406l61.660156-16.523437 45.34375 26.179687v89.296876l-45.34375 26.179687-61.660156-16.523437c-8.167969-2.195313-16.566407 2.652343-18.75 10.816406-2.183594 8.167968 2.664062 16.566406 10.828124 18.75l32.085938 8.601562-25.308594 14.617188c-7.316406 4.222656-9.828125 13.582031-5.601562 20.910156 4.222656 7.316406 13.59375 9.828125 20.910156 5.601562l25.308594-14.613281-8.59375 32.085938c-2.191406 8.164062 2.65625 16.566406 10.820312 18.75 8.164063 2.191406 16.5625-2.65625 18.746094-10.820313l16.523438-61.660156 45.34375-26.179688 77.328124 44.648438v52.347656l-45.136718 45.140625c-5.980469 5.980469-5.980469 15.675781 0 21.65625 5.980468 5.96875 15.664062 5.96875 21.644531 0l23.492187-23.496093v29.230468c0 8.449219 6.859376 15.308594 15.308594 15.308594 8.453125 0 15.308594-6.859375 15.308594-15.308594v-29.230468l23.496094 23.496093c5.980468 5.96875 15.664062 5.96875 21.644531 0 5.980469-5.980469 5.980469-15.675781 0-21.65625l-45.140625-45.140625v-52.347656l77.332031-44.648438 45.34375 26.179688 16.519531 61.660156c2.1875 8.164063 10.585938 13.011719 18.75 10.820313 8.164063-2.183594 13.011719-10.585938 10.816407-18.75l-8.59375-32.085938 25.3125 14.613281c7.316406 4.226563 16.6875 1.714844 20.910156-5.601562 4.226563-7.328125 1.714844-16.6875-5.601563-20.910156l-25.3125-14.617188 32.089844-8.601562c8.164063-2.183594 13.011719-10.582032 10.828125-18.75-2.195312-8.164063-10.585937-13.011719-18.75-10.816406zm-292.28125-81.277344 46.710938 26.972656-46.710938 26.972656zm62.019531 107.433594-46.710937-26.972657 46.710937-26.972656zm0-106.976563-46.710937-26.972656 46.710937-26.972657zm30.617188-53.945313 46.714844 26.972657-46.714844 26.972656zm0 160.921876v-53.945313l46.714844 26.972656zm62.023438-53.488282-46.714844-26.972656 46.714844-26.972656zm0 0" fill="#7ed8f6"/><path d="m335.910156 112.207031c0 10.070313-8.164062 18.234375-18.234375 18.234375-10.074219 0-18.234375-8.164062-18.234375-18.234375 0-10.070312 8.160156-18.234375 18.234375-18.234375 10.070313 0 18.234375 8.164063 18.234375 18.234375zm0 0" fill="#5ecef4"/><path d="m95.808594 256c0 10.070312-8.164063 18.234375-18.234375 18.234375-10.070313 0-18.234375-8.164063-18.234375-18.234375s8.164062-18.234375 18.234375-18.234375c10.070312 0 18.234375 8.164063 18.234375 18.234375zm0 0" fill="#7ed8f6"/><path d="m409.109375 256c0 10.070312-8.164063 18.234375-18.234375 18.234375s-18.234375-8.164063-18.234375-18.234375 8.164063-18.234375 18.234375-18.234375 18.234375 8.164063 18.234375 18.234375zm0 0" fill="#5ecef4"/><path d="m171.796875 112.207031c0 10.070313-8.164063 18.234375-18.234375 18.234375s-18.234375-8.164062-18.234375-18.234375c0-10.070312 8.164063-18.234375 18.234375-18.234375s18.234375 8.164063 18.234375 18.234375zm0 0" fill="#7ed8f6"/><path d="m334.515625 399.792969c0 10.070312-8.164063 18.234375-18.234375 18.234375s-18.234375-8.164063-18.234375-18.234375c0-10.070313 8.164063-18.234375 18.234375-18.234375s18.234375 8.164062 18.234375 18.234375zm0 0" fill="#5ecef4"/><path d="m170.402344 399.792969c0 10.070312-8.164063 18.234375-18.234375 18.234375-10.070313 0-18.234375-8.164063-18.234375-18.234375 0-10.070313 8.164062-18.234375 18.234375-18.234375 10.070312 0 18.234375 8.164062 18.234375 18.234375zm0 0" fill="#7ed8f6"/><path d="m449.175781 310.304688-61.660156 16.523437-45.347656-26.179687v-89.296876l45.347656-26.179687 61.660156 16.523437c8.164063 2.195313 16.554688-2.652343 18.75-10.816406 2.183594-8.167968-2.664062-16.566406-10.828125-18.75l-32.089844-8.601562 25.3125-14.617188c7.316407-4.222656 9.828126-13.582031 5.601563-20.910156-4.222656-7.316406-13.59375-9.828125-20.910156-5.601562l-25.3125 14.613281 8.59375-32.085938c2.195312-8.164062-2.652344-16.566406-10.816407-18.75-8.175781-2.191406-16.5625 2.65625-18.75 10.820313l-16.519531 61.660156-45.34375 26.179688-77.332031-44.648438v-52.347656l45.140625-45.140625c5.980469-5.980469 5.980469-15.675781 0-21.65625-5.980469-5.96875-15.664063-5.96875-21.644531 0l-23.496094 23.496093v-29.230468c0-8.449219-6.855469-15.308594-15.308594-15.308594v512c8.453125 0 15.308594-6.859375 15.308594-15.308594v-29.230468l23.496094 23.496093c5.980468 5.96875 15.664062 5.96875 21.644531 0 5.980469-5.980469 5.980469-15.675781 0-21.65625l-45.140625-45.140625v-52.347656l77.332031-44.648438 45.34375 26.179688 16.519531 61.660156c2.1875 8.164063 10.585938 13.011719 18.75 10.820313 8.164063-2.183594 13.011719-10.585938 10.816407-18.75l-8.59375-32.085938 25.3125 14.613281c7.316406 4.226563 16.6875 1.714844 20.910156-5.601562 4.226563-7.328125 1.714844-16.6875-5.601563-20.910156l-25.3125-14.617188 32.089844-8.601562c8.164063-2.183594 13.011719-10.582032 10.828125-18.75-2.195312-8.164063-10.585937-13.011719-18.75-10.816406zm-199.644531-134.765626 46.714844 26.972657-46.714844 26.972656zm0 160.921876v-53.945313l46.714844 26.972656zm62.023438-53.488282-46.714844-26.972656 46.714844-26.972656zm0 0" fill="#5ecef4"/></svg>